#!OML:ASF F:\VICON\USERDATA\INSTALL\SteveWalk\SteveWalk.ASF
:FULLY-SPECIFIED
:DEGREES
151
root -0.083431 16.2499 -12.5329 18.3407 -1.99408 -0.20166
lowerback -15.5897 1.4198 -0.347661
upperback -5.53334 1.89398 0.722496
thorax 2.82954 0.94928 1.2875
lowerneck -4.89434 -0.933209 1.27083
upperneck 8.55912 -1.15437 -2.28173
head 3.61853 -0.626056 -1.02914
rclavicle -2.35669e-016 -7.95139e-016
rhumerus -11.9663 7.96728 -85.0677
rradius 46.179
rwrist -17.4421
rhand -16.2663 -32.5612
rfingers 7.12502
rthumb 9.94325 -62.3063
lclavicle -2.35669e-016 -7.95139e-016
lhumerus -67.6393 27.46 46.9406
lradius 11.1625
lwrist -51.0258
lhand -4.65323 -14.3656
lfingers 7.12502
lthumb 21.1266 14.5033
rfemur -9.87567 -8.5317 23.3208
rtibia 24.1372
rfoot -28.1612 15.4723
rtoes -1.39121
lfemur -48.8683 2.86034 -20.2108
ltibia 20.8934
lfoot -9.46653 6.87653
ltoes -5.58452
152
root -0.0656312 16.2262 -12.3015 18.3823 -2.11085 -0.137785
lowerback -15.6354 1.46093 -0.287208
upperback -5.57115 1.94436 0.586803
thorax 2.81979 0.972882 1.12069
lowerneck -4.82657 -0.922247 1.31454
upperneck 8.46039 -1.14461 -2.2764
head 3.57086 -0.619124 -1.03267
rclavicle -3.08066e-014 -5.96354e-015
rhumerus -11.3908 8.65982 -84.8499
rradius 47.1081
rwrist -17.6744
rhand -16.309 -32.154
rfingers 7.12502
rthumb 9.90204 -61.9012
lclavicle -3.08066e-014 -5.96354e-015
lhumerus -68.4082 26.7971 46.67
lradius 11.3262
lwrist -49.4802
lhand -5.00685 -14.2189
lfingers 7.12502
lthumb 20.7868 14.6876
rfemur -8.55821 -8.69909 22.9499
rtibia 23.2817
rfoot -27.981 15.7834
rtoes -1.67392
lfemur -48.9444 3.50325 -20.9354
ltibia 18.396
lfoot -10.1845 5.73002
ltoes -4.86158
153
root -0.06647 16.19 -12.0746 18.509 -2.73396 -0.181674
lowerback -15.7462 1.63031 -0.49246
upperback -5.54628 2.2004 0.50781
thorax 2.89499 1.09991 1.20291
lowerneck -5.12903 -0.884758 1.45009
upperneck 8.50064 -1.10506 -2.30996
head 3.6445 -0.598037 -1.07003
rclavicle -1.71064e-014 -1.07344e-014
rhumerus -10.5135 9.21708 -84.5665
rradius 47.748
rwrist -18.0645
rhand -16.2211 -31.1417
rfingers 7.12502
rthumb 9.98684 -60.8848
lclavicle -1.71064e-014 -1.07344e-014
lhumerus -69.4183 26.751 45.3379
lradius 11.2343
lwrist -48.8578
lhand -5.56683 -13.6806
lfingers 7.12502
lthumb 20.2487 15.284
rfemur -7.41532 -7.92297 22.6848
rtibia 22.468
rfoot -27.7633 15.3718
rtoes -3.36441
lfemur -49.2848 4.68985 -21.6894
ltibia 16.3222
lfoot -10.7487 4.68407
ltoes -5.31395
154
root -0.0655215 16.162 -11.8485 18.6082 -3.50509 -0.206274
lowerback -15.8299 1.83866 -0.765627
upperback -5.51623 2.51643 0.478595
thorax 2.95307 1.25736 1.38604
lowerneck -5.47854 -0.85134 1.31298
upperneck 8.61807 -1.05882 -2.20878
head 3.75588 -0.577049 -1.01533
rclavicle -2.8288e-015 -1.78906e-015
rhumerus -9.71136 9.9228 -84.1937
rradius 48.6425
rwrist -18.2695
rhand -16.7548 -32.9889
rfingers 7.12502
rthumb 9.47194 -62.7561
lclavicle -2.8288e-015 -1.78906e-015
lhumerus -71.1453 27.472 42.2594
lradius 10.9164
lwrist -49.8947
lhand -6.46886 -13.4121
lfingers 7.12502
lthumb 19.3816 15.642
rfemur -6.33243 -7.30325 22.318
rtibia 21.7259
rfoot -27.3361 15.5672
rtoes -4.81812
lfemur -49.5682 6.0161 -22.5664
ltibia 14.569
lfoot -9.42717 3.27915
ltoes -7.31699
155
root -0.0586769 16.143 -11.6228 18.7722 -4.20533 -0.288292
lowerback -15.8074 2.04168 -0.9319
upperback -5.66785 2.80838 0.457091
thorax 2.76576 1.40571 1.50377
lowerneck -5.49712 -0.855483 1.04557
upperneck 8.75213 -1.06104 -1.96346
head 3.80795 -0.576534 -0.888149
rclavicle 2.25502e-014 6.95746e-015
rhumerus -9.45064 10.4582 -83.8877
rradius 49.6176
rwrist -18.2799
rhand -17.055 -33.7384
rfingers 7.12502
rthumb 9.18227 -63.5185
lclavicle 2.25502e-014 6.95746e-015
lhumerus -73.379 28.1367 38.4017
lradius 10.695
lwrist -51.5177
lhand -6.84036 -13.7166
lfingers 7.12502
lthumb 19.0244 15.373
rfemur -5.36432 -6.7709 21.9953
rtibia 21.0568
rfoot -26.6541 16.024
rtoes -5.22555
lfemur -49.9109 7.26796 -23.3886
ltibia 13.127
lfoot -10.8786 1.36411
ltoes -0.603175
156
root -0.0532554 16.1192 -11.3896 19.0124 -4.74513 -0.718875
lowerback -15.9457 2.26387 -0.722973
upperback -5.78001 3.06738 0.488913
thorax 2.72189 1.53363 1.46802
lowerneck -5.50274 -0.857201 0.945454
upperneck 8.72435 -1.07412 -1.75341
head 3.79983 -0.577074 -0.801029
rclavicle 2.86677e-014 8.54774e-015
rhumerus -9.19316 10.823 -83.6629
rradius 50.4545
rwrist -18.3062
rhand -17.2837 -33.7499
rfingers 7.12502
rthumb 8.96159 -63.5396
lclavicle 2.86677e-014 8.54774e-015
lhumerus -74.973 28.3001 35.8213
lradius 10.7055
lwrist -51.9292
lhand -6.72785 -14.2767
lfingers 7.12502
lthumb 19.1325 14.8023
rfemur -4.41427 -6.10992 22.1123
rtibia 20.4226
rfoot -25.8746 16.2943
rtoes -5.70737
lfemur -50.2825 8.50045 -23.8479
ltibia 12.0363
lfoot -11.3917 -0.44554
ltoes 0.907082
157
root -0.041655 16.0805 -11.1486 19.0988 -4.75985 -1.07477
lowerback -16.1005 2.35694 -0.400931
upperback -5.74476 3.14091 0.484897
thorax 2.85674 1.56599 1.30418
lowerneck -5.63384 -0.856727 0.970125
upperneck 8.59538 -1.08833 -1.64083
head 3.78017 -0.578651 -0.768744
rclavicle 2.04911e-014 3.37934e-015
rhumerus -8.84841 11.0762 -83.391
rradius 51.1793
rwrist -18.3449
rhand -17.2282 -32.4598
rfingers 7.12502
rthumb 9.01514 -62.2472
lclavicle 2.04911e-014 3.37934e-015
lhumerus -76.5732 28.7349 32.6928
lradius 10.5794
lwrist -53.2197
lhand -6.73733 -14.9138
lfingers 7.12502
lthumb 19.1234 14.166
rfemur -3.27472 -5.93746 22.2657
rtibia 19.9331
rfoot -25.3626 16.3947
rtoes -7.18145
lfemur -50.5734 9.41954 -24.4977
ltibia 11.2339
lfoot -11.468 -2.28779
ltoes -1.85228
158
root -0.024034 16.0404 -10.9021 19.1128 -4.53703 -0.990874
lowerback -16.203 2.30585 -0.436984
upperback -5.7182 3.08439 0.366583
thorax 2.94524 1.53645 1.19588
lowerneck -5.86274 -0.842424 1.11425
upperneck 8.51927 -1.08209 -1.67346
head 3.79802 -0.572962 -0.806311
rclavicle -2.0389e-014 -3.57812e-015
rhumerus -8.6137 11.2759 -83.0966
rradius 51.87
rwrist -18.2977
rhand -16.9882 -31.2697
rfingers 7.12502
rthumb 9.24674 -61.047
lclavicle -2.0389e-014 -3.57812e-015
lhumerus -78.4745 29.2369 28.805
lradius 10.3094
lwrist -55.4444
lhand -6.88849 -15.1156
lfingers 7.12502
lthumb 18.9781 13.9785
rfemur -2.20423 -6.06604 21.9786
rtibia 19.6949
rfoot -24.9032 16.6608
rtoes -7.0192
lfemur -50.6891 9.46869 -25.0895
ltibia 10.7478
lfoot -11.6889 -3.44554
ltoes -3.31994
159
root -0.01253 16.0041 -10.653 19.1517 -4.57456 -0.729143
lowerback -16.3362 2.28187 -0.802558
upperback -5.74054 3.11614 0.216192
thorax 2.98044 1.5533 1.25504
lowerneck -6.01256 -0.857915 1.22898
upperneck 8.45979 -1.1152 -1.68009
head 3.80567 -0.586365 -0.831457
rclavicle 5.19966e-015 1.68967e-015
rhumerus -8.46178 11.3903 -82.8134
rradius 52.5172
rwrist -18.4843
rhand -17.2177 -32.1416
rfingers 7.12502
rthumb 9.02524 -61.9285
lclavicle 5.19966e-015 1.68967e-015
lhumerus -79.5508 29.1303 26.8714
lradius 10.3067
lwrist -55.9247
lhand -6.93837 -15.0541
lfingers 7.12502
lthumb 18.9301 14.0447
rfemur -1.38247 -5.92748 21.4327
rtibia 19.7537
rfoot -24.0763 17.2213
rtoes -4.22529
lfemur -50.5126 8.65909 -24.83
ltibia 10.5241
lfoot -11.8115 -3.21744
ltoes -3.00067
160
root -0.012034 15.9658 -10.4075 19.1459 -4.76435 -0.652659
lowerback -16.3838 2.33866 -1.10122
upperback -5.78844 3.24302 0.0819602
thorax 2.94292 1.61793 1.30612
lowerneck -5.98993 -0.91173 1.21793
upperneck 8.43972 -1.20866 -1.4387
head 3.79336 -0.622141 -0.753633
rclavicle 2.87947e-015 9.93923e-016
rhumerus -8.51852 11.5617 -82.6736
rradius 52.9645
rwrist -18.0535
rhand -17.3585 -31.2467
rfingers 7.12502
rthumb 8.88943 -61.0394
lclavicle 2.87947e-015 9.93923e-016
lhumerus -80.1501 28.729 25.819
lradius 10.4109
lwrist -55.5677
lhand -7.16906 -15.1505
lfingers 7.12502
lthumb 18.7082 13.9699
rfemur -0.658249 -5.25695 21.1421
rtibia 20.0266
rfoot -23.1057 17.29
rtoes -3.47416
lfemur -50.3034 7.40536 -23.7072
ltibia 10.9195
lfoot -11.8094 -1.89289
ltoes -3.46557
161
root -0.00944952 15.9229 -10.1607 19.1299 -4.70038 -0.73524
lowerback -16.5238 2.32882 -1.11553
upperback -5.73786 3.2394 -0.0453002
thorax 3.07743 1.61331 1.18828
lowerneck -6.07821 -0.899172 1.33273
upperneck 8.35343 -1.22437 -1.22238
head 3.78047 -0.616898 -0.703067
rclavicle -1.36995e-014 -5.86415e-015
rhumerus -8.7748 11.6347 -82.6817
rradius 53.8356
rwrist -17.6237
rhand -17.5258 -30.843
rfingers 7.12502
rthumb 8.72796 -60.6426
lclavicle -1.36995e-014 -5.86415e-015
lhumerus -80.898 28.6099 24.1342
lradius 10.393
lwrist -55.9377
lhand -7.6156 -15.0238
lfingers 7.12502
lthumb 18.2787 14.1374
rfemur 0.122743 -4.54828 21.1388
rtibia 20.319
rfoot -22.7706 16.4176
rtoes -12.3874
lfemur -50.3873 5.95773 -22.4018
ltibia 12.3814
lfoot -11.1356 -0.118538
ltoes -7.96924
